<svg width="512" height="512" xmlns="http://www.w3.org/2000/svg">

 <g>
  <title>Layer 1</title>
  <g id="svg_1">
   <g id="svg_2">
    <path fill="#ffffff" id="svg_3" d="m379,35c-42.335,0 -79.128,20.15 -106.399,58.273c-5.39,7.533 -9.893,15.056 -13.601,22.047c-3.708,-6.991 -8.211,-14.514 -13.601,-22.047c-27.271,-38.123 -64.064,-58.273 -106.399,-58.273c-78.4,0 -136,65.255 -136,145.263c0,89.175 72.455,150.202 182.129,242.578c20.429,17.207 41.553,35 64.047,54.495c2.819,2.443 6.321,3.665 9.824,3.665s7.005,-1.222 9.824,-3.665c22.494,-19.495 43.618,-37.288 64.047,-54.495c109.674,-92.377 182.129,-153.403 182.129,-242.578c0,-79.987 -57.573,-145.263 -136,-145.263zm-65.455,364.896c-17.517,14.754 -35.543,29.937 -54.545,46.287c-19.002,-16.35 -37.028,-31.533 -54.545,-46.287c-58.95,-49.654 -106.468,-89.685 -136.4,-128.896l70.945,0c5.682,0 10.876,-3.21 13.416,-8.292l16.584,-33.167l46.584,93.167c2.54,5.082 7.734,8.292 13.416,8.292s10.876,-3.21 13.416,-8.292l16.584,-33.168l16.584,33.167c2.54,5.082 7.734,8.292 13.416,8.292s10.876,-3.21 13.416,-8.292l46.584,-93.166l16.584,33.167c2.54,5.082 7.734,8.192 13.416,8.192l70.945,0c-29.932,39.212 -77.45,79.342 -136.4,128.996zm74.725,-158.896l-25.854,-51.708c-2.54,-5.082 -7.734,-8.292 -13.416,-8.292s-10.876,3.21 -13.416,8.292l-46.584,93.166l-16.584,-33.167c-2.54,-5.081 -7.734,-8.291 -13.416,-8.291s-10.876,3.21 -13.416,8.292l-16.584,33.166l-46.584,-93.167c-2.54,-5.081 -7.734,-8.291 -13.416,-8.291s-10.876,3.21 -13.416,8.292l-25.855,51.708l-81.049,0c-10.199,-19.536 -15.68,-39.424 -15.68,-60.737c0,-65.711 45.57,-115.263 106,-115.263c32.447,0 59.869,15.154 81.507,45.041c17.033,23.529 23.961,47.693 24.045,47.99c1.808,6.482 7.715,10.969 14.448,10.969c6.742,0 12.656,-4.499 14.456,-10.997c0.258,-0.93 26.667,-93.003 105.544,-93.003c60.43,0 106,49.552 106,115.263c0,21.314 -5.481,41.201 -15.68,60.737l-81.05,0z"/>
   </g>
  </g>
  <g id="svg_4"/>
  <g id="svg_5"/>
  <g id="svg_6"/>
  <g id="svg_7"/>
  <g id="svg_8"/>
  <g id="svg_9"/>
  <g id="svg_10"/>
  <g id="svg_11"/>
  <g id="svg_12"/>
  <g id="svg_13"/>
  <g id="svg_14"/>
  <g id="svg_15"/>
  <g id="svg_16"/>
  <g id="svg_17"/>
  <g id="svg_18"/>
 </g>
</svg>